<svg width="30" height="49" viewBox="0 0 30 49" fill="none" xmlns="http://www.w3.org/2000/svg">
<path d="M27.6488 19.2668C27.2533 13.8202 23.4595 9.22728 18.2053 7.83568L18.4935 5.15375L20.7826 3.97993L20.8747 3.9331L22.4997 3.11099C22.8388 2.94004 23.0955 2.64168 23.2147 2.28017C23.3328 1.91975 23.3035 1.52666 23.1334 1.18693L22.9341 0.789481C22.9124 0.745925 22.8875 0.70237 22.8615 0.660992C22.4683 0.0425032 21.672 -0.177452 21.0198 0.15357L20.528 0.404014L20.4933 0.420348L15.8567 2.73424C15.5858 2.85837 15.4017 3.11535 15.3692 3.41261L14.9402 7.40666C8.24192 7.42844 2.78517 12.6551 2.30851 19.2668C0.969507 19.5282 0.00209041 20.7042 0.00100708 22.0762V23.4209C0.00317375 24.9497 1.20134 26.2063 2.72017 26.2727L4.59976 40.8856C4.97676 45.459 8.56801 48.9097 12.9501 48.9097H17.2531C21.6352 48.9097 25.2253 45.4612 25.598 40.9368L27.4841 26.2521C28.8968 26.0659 29.9541 24.8583 29.9563 23.4264V22.0805C29.9573 20.7085 28.9899 19.5271 27.6488 19.2668ZM14.977 9.55395C20.4803 9.55395 25.0011 13.8061 25.5016 19.2124H23.414C22.9254 14.957 19.3418 11.649 14.9803 11.649C10.6198 11.649 7.02859 14.957 6.54109 19.2124H4.45459C4.95292 13.8061 9.47151 9.55395 14.977 9.55395ZM21.3784 19.2124H19.0688C18.6246 17.3014 16.9292 15.9501 14.9781 15.9501C13.0259 15.9501 11.3316 17.3014 10.8874 19.2124H8.57776C9.05767 16.0317 11.7779 13.6808 14.9781 13.6808C18.1783 13.6808 20.8985 16.0317 21.3784 19.2124ZM5.93117 34.0866L4.92909 26.2858H12.8699L12.3575 31.1967C9.33826 31.0987 7.19759 32.7103 5.93334 34.0855L5.93117 34.0866ZM23.4194 40.7016C23.1378 44.124 20.4858 46.7047 17.252 46.7047H12.949C9.71417 46.7047 7.06217 44.124 6.77401 40.6504L6.25184 36.5726C6.72959 35.7755 8.67201 32.9651 12.1668 32.9988L11.5212 39.1772C11.4367 39.9851 12.0022 40.7136 12.7854 40.8007L13.2253 40.8497C13.274 40.8551 13.3228 40.8584 13.3715 40.8584C14.1125 40.8519 14.7278 40.2835 14.7961 39.5419L15.3984 33.773C15.5122 33.8242 15.6238 33.871 15.7386 33.9287C19.7686 35.9105 22.5658 35.3138 24.2222 34.4449L23.4205 40.7016H23.4194ZM24.5331 32.0308C23.9914 32.597 21.4792 34.7585 16.5229 32.3204C16.2066 32.1647 15.8989 32.033 15.5934 31.9121L16.1828 26.2847H25.2719L24.5331 32.0308ZM27.7907 23.4188C27.7907 23.6017 27.7192 23.7781 27.5913 23.9066C27.4635 24.0373 27.2891 24.1102 27.1071 24.1102H2.85017C2.47101 24.1102 2.16551 23.8021 2.16551 23.4231V22.0773C2.16551 21.6972 2.47209 21.3902 2.85017 21.3891H27.1071C27.4863 21.3891 27.7918 21.6972 27.7928 22.0773L27.7907 23.4188Z" fill="white"/>
</svg>
